<svg width="97" height="103" viewBox="0 0 97 103" fill="none" xmlns="http://www.w3.org/2000/svg">
<g filter="url(#filter0_d_20_214)">
<path d="M54.1263 5L81.9485 27.7202V73.1607L54.1263 95.881L26.3041 73.1607V27.7202L54.1263 5Z" fill="url(#paint0_linear_20_214)" shape-rendering="crispEdges"/>
</g>
<g filter="url(#filter1_d_20_214)">
<path d="M42.1263 5L69.9485 27.7202V73.1607L42.1263 95.881L14.3041 73.1607V27.7202L42.1263 5Z" fill="url(#paint1_linear_20_214)"/>
</g>
<g filter="url(#filter2_d_20_214)">
<path d="M7.30664 15.1211C7.04883 15.4453 6.69141 15.6895 6.23438 15.8535C5.78125 16.0137 5.25977 16.0938 4.66992 16.0938C3.74023 16.0938 2.99414 15.8027 2.43164 15.2207C1.86914 14.6387 1.58398 13.8555 1.57617 12.8711V12.3438C1.57617 11.3203 1.83594 10.5215 2.35547 9.94727C2.87891 9.36914 3.61328 9.08008 4.55859 9.08008C5.33984 9.08008 5.9668 9.26367 6.43945 9.63086C6.91211 9.99805 7.20117 10.5352 7.30664 11.2422H6.22852C6.08008 10.3945 5.52734 9.9707 4.57031 9.9707C3.94922 9.9707 3.47656 10.1719 3.15234 10.5742C2.82812 10.9766 2.66602 11.5664 2.66602 12.3438V12.8359C2.66602 13.5781 2.8457 14.1602 3.20508 14.582C3.56836 15 4.0625 15.209 4.6875 15.209C5.39844 15.209 5.91211 15.0645 6.22852 14.7754V13.3809H4.58203V12.5371H7.30664V15.1211ZM5.04492 30H3.95508V23.1738H5.04492V30ZM7.52344 40.7891C7.52344 41.8086 7.25391 42.6152 6.71484 43.209C6.17578 43.7988 5.45312 44.0938 4.54688 44.0938C3.65234 44.0938 2.92969 43.7949 2.37891 43.1973C1.83203 42.5996 1.55859 41.7871 1.55859 40.7598V40.3965C1.55859 39.3887 1.83008 38.584 2.37305 37.9824C2.91992 37.3809 3.64062 37.0801 4.53516 37.0801C5.44531 37.0801 6.16797 37.377 6.70312 37.9707C7.24219 38.5645 7.51562 39.3594 7.52344 40.3555V40.7891ZM6.45117 40.3848C6.45117 39.6113 6.2832 39.0195 5.94727 38.6094C5.61133 38.1992 5.14062 37.9941 4.53516 37.9941C3.94922 37.9941 3.48438 38.2031 3.14062 38.6211C2.80078 39.0391 2.63086 39.6328 2.63086 40.4023V40.7891C2.63086 41.5508 2.80273 42.1426 3.14648 42.5645C3.49023 42.9824 3.95703 43.1914 4.54688 43.1914C5.15625 43.1914 5.625 42.9863 5.95312 42.5762C6.28516 42.1621 6.45117 41.5664 6.45117 40.7891V40.3848ZM4.34766 56.2891L4.49414 56.8398L4.64648 56.3008L6.52148 51.1738H7.68164L5.00391 58H3.99023L1.3125 51.1738H2.47852L4.34766 56.2891ZM6.01758 70.3652H2.9707L2.32617 72H1.21875L4.02539 65.1738H4.99805L7.76367 72H6.66211L6.01758 70.3652ZM3.32227 69.4805H5.67188L4.50586 66.498L3.32227 69.4805ZM7.34766 86H6.26953L2.72461 80.8672V86H1.64062V79.1738H2.72461L6.26953 84.3125V79.1738H7.34766V86ZM6.58594 96.918H3.46875V99.1152H7.0957V100H2.38477V93.1738H7.06055V94.0703H3.46875V96.0273H6.58594V96.918Z" fill="url(#paint2_linear_20_214)"/>
</g>
<g filter="url(#filter3_d_20_214)">
<path d="M93.1113 21.2539C93.1113 20.9414 92.9922 20.6992 92.7539 20.5273C92.5195 20.3555 92.1152 20.1973 91.541 20.0527C90.9668 19.9082 90.5117 19.752 90.1758 19.584C89.4141 19.2012 89.0332 18.6602 89.0332 17.9609C89.0332 17.4023 89.2695 16.9492 89.7422 16.6016C90.2188 16.2539 90.8301 16.0801 91.5762 16.0801C92.3418 16.0801 92.9668 16.2754 93.4512 16.666C93.9395 17.0566 94.1836 17.5566 94.1836 18.166H93.0996C93.0996 17.7832 92.9609 17.4883 92.6836 17.2812C92.4102 17.0703 92.0371 16.9648 91.5645 16.9648C91.123 16.9648 90.7715 17.0527 90.5098 17.2285C90.248 17.4004 90.1172 17.6426 90.1172 17.9551C90.1172 18.209 90.2363 18.4219 90.4746 18.5938C90.7168 18.7656 91.1426 18.9297 91.752 19.0859C92.3613 19.2422 92.8379 19.4199 93.1816 19.6191C93.5254 19.8145 93.7812 20.0449 93.9492 20.3105C94.1172 20.5762 94.2012 20.8867 94.2012 21.2422C94.2012 21.8164 93.9629 22.2695 93.4863 22.6016C93.0137 22.9297 92.3887 23.0938 91.6113 23.0938C90.8027 23.0938 90.1309 22.8965 89.5957 22.502C89.0645 22.1035 88.7988 21.5879 88.7988 20.9551H89.8887C89.8887 21.3535 90.0391 21.6641 90.3398 21.8867C90.6406 22.1094 91.0645 22.2207 91.6113 22.2207C92.1035 22.2207 92.4766 22.1328 92.7305 21.957C92.9844 21.7773 93.1113 21.543 93.1113 21.2539ZM93.0176 35.3652H89.9707L89.3262 37H88.2188L91.0254 30.1738H91.998L94.7637 37H93.6621L93.0176 35.3652ZM90.3223 34.4805H92.6719L91.5059 31.498L90.3223 34.4805ZM94.3477 51H93.2695L89.7246 45.8672V51H88.6406V44.1738H89.7246L93.2695 49.3125V44.1738H94.3477V51ZM94.3711 59.0703H92.0332V65H90.9492V59.0703H88.623V58.1738H94.3711V59.0703ZM94.4766 75.7891C94.4766 76.8086 94.207 77.6152 93.668 78.209C93.1289 78.7988 92.4062 79.0938 91.5 79.0938C90.6055 79.0938 89.8828 78.7949 89.332 78.1973C88.7852 77.5996 88.5117 76.7871 88.5117 75.7598V75.3965C88.5117 74.3887 88.7832 73.584 89.3262 72.9824C89.873 72.3809 90.5938 72.0801 91.4883 72.0801C92.3984 72.0801 93.1211 72.377 93.6562 72.9707C94.1953 73.5645 94.4688 74.3594 94.4766 75.3555V75.7891ZM93.4043 75.3848C93.4043 74.6113 93.2363 74.0195 92.9004 73.6094C92.5645 73.1992 92.0938 72.9941 91.4883 72.9941C90.9023 72.9941 90.4375 73.2031 90.0938 73.6211C89.7539 74.0391 89.584 74.6328 89.584 75.4023V75.7891C89.584 76.5508 89.7559 77.1426 90.0996 77.5645C90.4434 77.9824 90.9102 78.1914 91.5 78.1914C92.1094 78.1914 92.5781 77.9863 92.9062 77.5762C93.2383 77.1621 93.4043 76.5664 93.4043 75.7891V75.3848ZM93.1113 91.2539C93.1113 90.9414 92.9922 90.6992 92.7539 90.5273C92.5195 90.3555 92.1152 90.1973 91.541 90.0527C90.9668 89.9082 90.5117 89.752 90.1758 89.584C89.4141 89.2012 89.0332 88.6602 89.0332 87.9609C89.0332 87.4023 89.2695 86.9492 89.7422 86.6016C90.2188 86.2539 90.8301 86.0801 91.5762 86.0801C92.3418 86.0801 92.9668 86.2754 93.4512 86.666C93.9395 87.0566 94.1836 87.5566 94.1836 88.166H93.0996C93.0996 87.7832 92.9609 87.4883 92.6836 87.2812C92.4102 87.0703 92.0371 86.9648 91.5645 86.9648C91.123 86.9648 90.7715 87.0527 90.5098 87.2285C90.248 87.4004 90.1172 87.6426 90.1172 87.9551C90.1172 88.209 90.2363 88.4219 90.4746 88.5938C90.7168 88.7656 91.1426 88.9297 91.752 89.0859C92.3613 89.2422 92.8379 89.4199 93.1816 89.6191C93.5254 89.8145 93.7812 90.0449 93.9492 90.3105C94.1172 90.5762 94.2012 90.8867 94.2012 91.2422C94.2012 91.8164 93.9629 92.2695 93.4863 92.6016C93.0137 92.9297 92.3887 93.0938 91.6113 93.0938C90.8027 93.0938 90.1309 92.8965 89.5957 92.502C89.0645 92.1035 88.7988 91.5879 88.7988 90.9551H89.8887C89.8887 91.3535 90.0391 91.6641 90.3398 91.8867C90.6406 92.1094 91.0645 92.2207 91.6113 92.2207C92.1035 92.2207 92.4766 92.1328 92.7305 91.957C92.9844 91.7773 93.1113 91.543 93.1113 91.2539Z" fill="url(#paint3_linear_20_214)"/>
</g>
<defs>
<filter id="filter0_d_20_214" x="21.3042" y="0" width="65.6443" height="100.881" filterUnits="userSpaceOnUse" color-interpolation-filters="sRGB">
<feFlood flood-opacity="0" result="BackgroundImageFix"/>
<feColorMatrix in="SourceAlpha" type="matrix" values="0 0 0 0 0 0 0 0 0 0 0 0 0 0 0 0 0 0 127 0" result="hardAlpha"/>
<feOffset/>
<feGaussianBlur stdDeviation="2.5"/>
<feComposite in2="hardAlpha" operator="out"/>
<feColorMatrix type="matrix" values="0 0 0 0 0.219608 0 0 0 0 0.94902 0 0 0 0 0.878431 0 0 0 1 0"/>
<feBlend mode="normal" in2="BackgroundImageFix" result="effect1_dropShadow_20_214"/>
<feBlend mode="normal" in="SourceGraphic" in2="effect1_dropShadow_20_214" result="shape"/>
</filter>
<filter id="filter1_d_20_214" x="9.3042" y="0" width="65.6443" height="100.881" filterUnits="userSpaceOnUse" color-interpolation-filters="sRGB">
<feFlood flood-opacity="0" result="BackgroundImageFix"/>
<feColorMatrix in="SourceAlpha" type="matrix" values="0 0 0 0 0 0 0 0 0 0 0 0 0 0 0 0 0 0 127 0" result="hardAlpha"/>
<feOffset/>
<feGaussianBlur stdDeviation="2.5"/>
<feComposite in2="hardAlpha" operator="out"/>
<feColorMatrix type="matrix" values="0 0 0 0 0.945098 0 0 0 0 0.470588 0 0 0 0 0.713726 0 0 0 1 0"/>
<feBlend mode="normal" in2="BackgroundImageFix" result="effect1_dropShadow_20_214"/>
<feBlend mode="normal" in="SourceGraphic" in2="effect1_dropShadow_20_214" result="shape"/>
</filter>
<filter id="filter2_d_20_214" x="0.71875" y="8.58008" width="8.54492" height="92.9199" filterUnits="userSpaceOnUse" color-interpolation-filters="sRGB">
<feFlood flood-opacity="0" result="BackgroundImageFix"/>
<feColorMatrix in="SourceAlpha" type="matrix" values="0 0 0 0 0 0 0 0 0 0 0 0 0 0 0 0 0 0 127 0" result="hardAlpha"/>
<feOffset dx="0.5" dy="0.5"/>
<feGaussianBlur stdDeviation="0.5"/>
<feComposite in2="hardAlpha" operator="out"/>
<feColorMatrix type="matrix" values="0 0 0 0 0.219608 0 0 0 0 0.94902 0 0 0 0 0.878431 0 0 0 1 0"/>
<feBlend mode="normal" in2="BackgroundImageFix" result="effect1_dropShadow_20_214"/>
<feBlend mode="normal" in="SourceGraphic" in2="effect1_dropShadow_20_214" result="shape"/>
</filter>
<filter id="filter3_d_20_214" x="87.7188" y="15.5801" width="8.54492" height="79.0137" filterUnits="userSpaceOnUse" color-interpolation-filters="sRGB">
<feFlood flood-opacity="0" result="BackgroundImageFix"/>
<feColorMatrix in="SourceAlpha" type="matrix" values="0 0 0 0 0 0 0 0 0 0 0 0 0 0 0 0 0 0 127 0" result="hardAlpha"/>
<feOffset dx="0.5" dy="0.5"/>
<feGaussianBlur stdDeviation="0.5"/>
<feComposite in2="hardAlpha" operator="out"/>
<feColorMatrix type="matrix" values="0 0 0 0 0.945098 0 0 0 0 0.470588 0 0 0 0 0.713726 0 0 0 1 0"/>
<feBlend mode="normal" in2="BackgroundImageFix" result="effect1_dropShadow_20_214"/>
<feBlend mode="normal" in="SourceGraphic" in2="effect1_dropShadow_20_214" result="shape"/>
</filter>
<linearGradient id="paint0_linear_20_214" x1="54.1263" y1="5" x2="54.1263" y2="95.881" gradientUnits="userSpaceOnUse">
<stop stop-color="#F7F7F7"/>
<stop offset="1" stop-color="#F3F3F3" stop-opacity="0"/>
</linearGradient>
<linearGradient id="paint1_linear_20_214" x1="42.1263" y1="5" x2="42.1263" y2="95.881" gradientUnits="userSpaceOnUse">
<stop stop-color="#FAFAFA"/>
<stop offset="1" stop-color="#FCFCFC"/>
</linearGradient>
<linearGradient id="paint2_linear_20_214" x1="4.5" y1="5" x2="4.5" y2="103" gradientUnits="userSpaceOnUse">
<stop stop-color="#272727"/>
<stop offset="1" stop-color="#464646"/>
</linearGradient>
<linearGradient id="paint3_linear_20_214" x1="91.5" y1="12" x2="91.5" y2="96" gradientUnits="userSpaceOnUse">
<stop stop-color="#323232"/>
<stop offset="1" stop-color="#464646"/>
</linearGradient>
</defs>
</svg>
